<svg xmlns="http://www.w3.org/2000/svg" viewBox="0 0 452.98 452.98"><path d="M437.98 433.72l-419.3.57.57-418.72c.02-8.29-.49-15-8.78-15C2.2.57 0 6.72 0 15v422.98a15 15 0 0015 15h422.98c8.28 0 14.43-2.2 14.43-10.48s-6.15-8.79-14.43-8.78z"/><path d="M57 405.98h78.93a10 10 0 0010-10v-82.83a10 10 0 00-10-10H57a10 10 0 00-10 10v82.83a10 10 0 0010 10zm10-82.83h58.92v62.83H67v-62.83zm112.15 82.83h78.92a10 10 0 0010-10v-215.6a10 10 0 00-10-10h-78.92a10 10 0 00-10 10v215.6a10 10 0 0010 10zm10-215.6h58.92v195.6h-58.92v-195.6zm115.9 215.6h78.93a10 10 0 0010-10V49.16a10 10 0 00-10-10h-78.93a10 10 0 00-10 10v346.82a10 10 0 0010 10zm10-346.82h58.93v326.82h-58.93V59.16z"/></svg>