<svg xmlns="http://www.w3.org/2000/svg" viewBox="0 0 372.48 372.48"><path d="M372.48 263.05c0-21.8-6.52-42.85-18.87-60.87a108.84 108.84 0 00-33.58-31.72 80.8 80.8 0 0025.37-58.81c0-44.69-36.35-81.04-81.04-81.04a81.3 81.3 0 00-66.39 34.61 81.31 81.31 0 00-23.46 0 81.3 81.3 0 00-66.39-34.61c-44.68 0-81.04 36.35-81.04 81.04a80.8 80.8 0 0025.38 58.8c-13.26 8-24.7 18.77-33.58 31.73A107.24 107.24 0 000 263.05v45.07h78.12v33.76h216.24v-33.76h78.12v-45.08zM264.36 50.6a61.1 61.1 0 0161.04 61.04 61.1 61.1 0 01-62.85 61l.13-.38a80.24 80.24 0 002.6-9.09l.16-.65c.18-.84.34-1.68.5-2.53l.21-1.2a81.4 81.4 0 00.55-3.86 83.85 83.85 0 00.38-4.1c.03-.55.08-1.1.1-1.64.06-1.18.09-2.36.1-3.54v-.4a82.59 82.59 0 00-.1-3.6l-.05-1.03a83.98 83.98 0 00-.24-3.03l-.06-.69a80.64 80.64 0 00-48.1-65.77 61.22 61.22 0 0145.63-20.53zm-99.24 37.52l.59-.2a58.8 58.8 0 014.27-1.35 60.92 60.92 0 0116.26-2.22 61.17 61.17 0 0117.3 2.52 61.3 61.3 0 013.25 1.05l.56.2a61.23 61.23 0 0139.18 47.76l.08.53c.11.75.2 1.5.29 2.26l.09.83.16 2.08.05.9c.05.89.07 1.78.07 2.68v.33c0 .88-.02 1.74-.06 2.6l-.04.82c-.05.83-.1 1.66-.19 2.48l-.1.95a63.99 63.99 0 01-.21 1.6l-.18 1.22a60.17 60.17 0 01-.91 4.49 61.5 61.5 0 01-.64 2.42l-.27.96-.44 1.37-.37 1.09c-.14.4-.28.82-.44 1.23-.25.7-.53 1.38-.8 2.06l-.4.9a59.7 59.7 0 01-.76 1.7l-.1.2-.28.59a58.17 58.17 0 01-.92 1.8l-.37.68a61.36 61.36 0 01-1.1 1.91l-.44.73c-.4.65-.81 1.3-1.23 1.93l-.81 1.16-.7.98a62.13 62.13 0 01-1.6 2.08l-1.01 1.24-.66.76c-.36.41-.72.83-1.09 1.23l-.67.7a62.43 62.43 0 01-1.85 1.87l-1.12 1.07-.8.72a60.41 60.41 0 01-2.02 1.72c-.55.44-1.1.88-1.65 1.3l-.46.35a60.72 60.72 0 01-36.34 12.03 60.71 60.71 0 01-36.34-12.04l-.45-.34a59.83 59.83 0 01-1.66-1.3l-.68-.57a63.73 63.73 0 01-1.33-1.15c-.27-.24-.54-.47-.8-.72-.39-.35-.76-.71-1.13-1.07a61.65 61.65 0 01-1.86-1.87l-.66-.7c-.37-.4-.73-.82-1.09-1.23l-.65-.76a63.82 63.82 0 01-1.68-2.08c-.32-.4-.63-.82-.94-1.24l-.7-.98-.8-1.16a60.8 60.8 0 01-1.24-1.93l-.44-.72a60.98 60.98 0 01-1.08-1.9l-.38-.7a62.08 62.08 0 01-.92-1.8l-.32-.65-.04-.1a60.05 60.05 0 01-.8-1.77l-.37-.85a61.8 61.8 0 01-.83-2.1l-.41-1.16a59.6 59.6 0 01-.4-1.19c-.15-.43-.29-.86-.42-1.3a59.23 59.23 0 01-.56-1.96l-.35-1.39a58.13 58.13 0 01-.25-1.1l-.3-1.34a59.65 59.65 0 01-.37-2.13l-.17-1.15a60.37 60.37 0 01-.22-1.72l-.1-.85a60.99 60.99 0 01-.2-2.54l-.03-.73a60.99 60.99 0 01-.07-2.75 61 61 0 01.08-2.94c0-.26.03-.53.05-.8.04-.72.1-1.45.16-2.18l.08-.76.3-2.34.07-.46a61.23 61.23 0 0139.18-47.79zM47.08 111.65a61.1 61.1 0 0161.04-61.04 61.23 61.23 0 0145.63 20.53 80.64 80.64 0 00-48.1 65.8l-.06.6a81.18 81.18 0 00-.24 3.13l-.05.96a82.73 82.73 0 00-.1 3.77c0 1.28.04 2.55.1 3.82.02.52.07 1.02.1 1.53a84.51 84.51 0 00.38 4.13 78.83 78.83 0 00.54 3.88l.24 1.3c.15.82.3 1.63.47 2.44l.19.8a80.08 80.08 0 002.52 8.8l.19.56c-.6.02-1.2.02-1.81.02a61.1 61.1 0 01-61.04-61.03zm47.8 127.5l-.64 1.05-1.35 2.22-.71 1.26a106.54 106.54 0 00-1.87 3.42 109 109 0 00-2.75 5.66l-.55 1.22c-.39.9-.76 1.8-1.12 2.7l-.33.8a106.12 106.12 0 00-1.32 3.55l-.28.82c-.32.92-.62 1.84-.92 2.76l-.38 1.28a106.05 106.05 0 00-1.06 3.78 98.63 98.63 0 00-.57 2.28 107.84 107.84 0 00-.82 3.77l-.27 1.4c-.16.85-.3 1.7-.44 2.55l-.2 1.2a107.15 107.15 0 00-.5 3.76v.05a190.8 190.8 0 00-.33 3.44H20v-25.07a87.94 87.94 0 0150.55-79.64 80.52 80.52 0 0037.57 9.28c3.92 0 7.85-.3 11.75-.87a82.73 82.73 0 001.87 2.57l.66.84a80.73 80.73 0 001.94 2.39l.82.95a80.4 80.4 0 002.92 3.18 84.25 84.25 0 001.8 1.8l.67.67c-.87.52-1.73 1.06-2.59 1.61l-.41.27c-.85.56-1.7 1.12-2.53 1.7l-.87.6-2.21 1.6-.7.52c-.92.7-1.84 1.42-2.75 2.15l-.6.49a105.2 105.2 0 00-2.95 2.51 110.57 110.57 0 00-2.1 1.9l-.54.5a106.62 106.62 0 00-2.5 2.44l-.64.65c-.63.64-1.25 1.29-1.87 1.95l-.73.79a74.4 74.4 0 00-2.04 2.3l-.32.36c-.77.9-1.52 1.8-2.25 2.72l-.61.78c-.56.7-1.1 1.41-1.64 2.13l-.63.84a111.81 111.81 0 00-2.07 2.91 107.36 107.36 0 00-2.11 3.2zm3.24 82.73V296.8c0-1.1.02-2.22.06-3.32l.06-1.08c.04-.74.07-1.48.13-2.2.03-.45.08-.9.12-1.34.06-.65.11-1.3.18-1.93l.18-1.41.25-1.83c.07-.49.16-.97.24-1.45.1-.58.19-1.17.3-1.75.09-.5.2-.99.3-1.48.11-.56.22-1.13.35-1.7l.36-1.47.41-1.65c.13-.5.28-1 .42-1.49l.46-1.6c.15-.5.32-1 .48-1.48.17-.53.33-1.05.51-1.57l.53-1.47c.19-.5.37-1.03.57-1.54l.58-1.44.62-1.5.64-1.44c.23-.5.44-.99.67-1.47l.7-1.42c.24-.48.47-.96.72-1.43l.74-1.4c.26-.47.5-.93.77-1.4l.8-1.37.82-1.37c.27-.45.56-.9.84-1.34.29-.45.57-.9.87-1.33l.9-1.32.9-1.3.95-1.28.96-1.27.99-1.25 1-1.23a92.08 92.08 0 011.04-1.21l1.05-1.2c.35-.4.72-.78 1.08-1.17a85.42 85.42 0 014.52-4.52 94.02 94.02 0 011.18-1.09 86.63 86.63 0 012.44-2.1 87.18 87.18 0 011.24-1c.42-.35.85-.68 1.27-1.01a102.04 102.04 0 012.6-1.93 87.94 87.94 0 014.02-2.72 85.07 85.07 0 012.8-1.7 89.44 89.44 0 014.35-2.39c.47-.25.95-.49 1.43-.72l1.15-.55a80.52 80.52 0 0037.57 9.27 80.51 80.51 0 0037.57-9.27l1.14.54a98.53 98.53 0 012.93 1.51 89.06 89.06 0 012.86 1.6 84.33 84.33 0 012.79 1.7 83.62 83.62 0 012.7 1.8 82.26 82.26 0 012.64 1.88 82.49 82.49 0 012.55 1.98 94.32 94.32 0 012.48 2.05 81.5 81.5 0 012.38 2.14 87.71 87.71 0 018.7 9.34l1 1.25.95 1.26.95 1.3.9 1.29.9 1.32c.3.44.58.88.86 1.32l.86 1.35.8 1.36c.28.46.55.92.8 1.38.27.46.52.93.77 1.4.26.46.5.93.75 1.4.25.47.48.95.72 1.43l.7 1.42c.23.48.44.97.66 1.46l.65 1.44.61 1.5.59 1.46c.2.5.38 1.02.57 1.53l.53 1.47c.18.52.34 1.05.51 1.57.16.5.33.98.48 1.48l.46 1.6c.14.5.29.99.42 1.49l.4 1.65a35.54 35.54 0 01.72 3.18c.1.48.21.97.3 1.47.11.57.2 1.16.3 1.74l.25 1.46c.09.6.16 1.21.24 1.82l.18 1.41.18 1.94c.04.44.1.88.12 1.33.06.73.1 1.47.13 2.2.02.37.05.73.06 1.1.04 1.1.06 2.2.06 3.31v25.08H98.12zm195.9-33.76a108.43 108.43 0 00-.84-7.26l-.19-1.14c-.14-.87-.28-1.74-.44-2.6l-.27-1.37a90.4 90.4 0 00-.5-2.37 112.45 112.45 0 00-1.27-5.12c-.22-.8-.45-1.6-.7-2.38l-.37-1.26c-.3-.94-.6-1.87-.93-2.8l-.26-.79a106.77 106.77 0 00-1.33-3.56l-.31-.76c-.37-.91-.75-1.83-1.14-2.74l-.54-1.2-1.04-2.26-.64-1.3a108.1 108.1 0 00-1.78-3.44l-1.16-2.1-.72-1.25c-.44-.75-.9-1.5-1.36-2.23l-.64-1.04a108.78 108.78 0 00-2.1-3.21 112.59 112.59 0 00-2.08-2.91l-.62-.83a111.7 111.7 0 00-1.65-2.15l-.6-.76a107.8 107.8 0 00-2.26-2.73l-.3-.35a108.12 108.12 0 00-4.67-5.06l-.62-.64a109.23 109.23 0 00-2.51-2.44l-.53-.5a111.41 111.41 0 00-2.11-1.9l-.82-.7a108.28 108.28 0 00-2.14-1.81l-.59-.49a107.65 107.65 0 00-2.75-2.15l-.7-.52a108.15 108.15 0 00-5.59-3.88l-.44-.3c-.85-.54-1.71-1.08-2.58-1.6.23-.21.44-.44.66-.66a78.9 78.9 0 001.83-1.83 75.45 75.45 0 002.92-3.18l.8-.92a80.58 80.58 0 001.96-2.43l.63-.8a83.43 83.43 0 001.88-2.58c3.9.58 7.83.87 11.75.87a80.5 80.5 0 0037.57-9.28 87.93 87.93 0 0150.55 79.64v25.07h-58.46z"/></svg>